<svg width="27" height="28" viewBox="0 0 27 28" fill="none" xmlns="http://www.w3.org/2000/svg">
<path d="M23.1064 4.54925C23.5386 4.98144 23.5386 5.68218 23.1064 6.11437L5.39903 23.8218C4.96684 24.254 4.2661 24.254 3.83391 23.8218C3.40171 23.3896 3.40171 22.6888 3.83391 22.2566L21.5413 4.54925C21.9735 4.11705 22.6742 4.11705 23.1064 4.54925Z" fill="#667185"/>
<path d="M17.6751 6.85026C16.4286 6.26325 15.0232 5.88517 13.4701 5.88517C10.2119 5.88517 7.60322 7.54932 5.74929 9.31562C3.89109 11.086 2.68537 13.0563 2.20809 13.9086C1.89531 14.4672 1.85805 15.1341 2.1148 15.7265C2.2941 16.1401 2.59903 16.781 3.04846 17.5247C3.36459 18.0478 4.04494 18.2156 4.56805 17.8995C5.09117 17.5833 5.25896 16.903 4.94282 16.3799C4.58134 15.7817 4.33051 15.2644 4.17836 14.9208C4.62741 14.1294 5.69091 12.4284 7.27608 10.9182C8.91344 9.35821 11.0022 8.09859 13.4701 8.09859C14.3578 8.09859 15.1964 8.26154 15.9826 8.54281L17.6751 6.85026Z" fill="#667185"/>
<path d="M19.7679 11.018C21.2958 12.5027 22.3227 14.1468 22.7619 14.9208C22.6098 15.2644 22.3589 15.7817 21.9975 16.3799C21.6813 16.903 21.8491 17.5833 22.3722 17.8995C22.8954 18.2156 23.5757 18.0478 23.8918 17.5247C24.3413 16.781 24.6462 16.1401 24.8255 15.7265C25.0822 15.1341 25.045 14.4671 24.7322 13.9086C24.2672 13.0782 23.1108 11.1867 21.3332 9.45271L19.7679 11.018Z" fill="#667185"/>
<path d="M13.4702 9.75866C13.8724 9.75866 14.2645 9.80157 14.6424 9.88306L12.3649 12.1605C11.4204 12.4938 10.6718 13.2424 10.3384 14.187L8.061 16.4644C7.97951 16.0866 7.93661 15.6944 7.93661 15.2922C7.93661 12.2361 10.4141 9.75866 13.4702 9.75866Z" fill="#667185"/>
<path d="M13.4702 18.6124C13.0818 18.6124 12.7091 18.5457 12.3627 18.4232L10.7015 20.0844C11.5159 20.5559 12.4615 20.8258 13.4702 20.8258C16.5263 20.8258 19.0037 18.3483 19.0037 15.2922C19.0037 14.2835 18.7338 13.3379 18.2624 12.5236L16.6011 14.1848C16.7236 14.5312 16.7903 14.9039 16.7903 15.2922C16.7903 17.1259 15.3038 18.6124 13.4702 18.6124Z" fill="#667185"/>
</svg>
