<svg width="27" height="28" viewBox="0 0 27 28" fill="none" xmlns="http://www.w3.org/2000/svg">
<path fill-rule="evenodd" clip-rule="evenodd" d="M21.2177 23.9015C23.6626 23.9015 25.6446 21.9196 25.6446 19.4747V9.53938C25.645 9.52245 25.645 9.50548 25.6446 9.48849V8.40756C25.6446 5.96268 23.6626 3.98071 21.2177 3.98071H5.72377C3.27889 3.98071 1.29693 5.96268 1.29693 8.40756V9.48849C1.29653 9.50549 1.29653 9.52245 1.29693 9.53937V19.4747C1.29693 21.9196 3.27889 23.9015 5.72377 23.9015H21.2177ZM3.51035 19.4747C3.51035 20.6971 4.50133 21.6881 5.72377 21.6881H21.2177C22.4402 21.6881 23.4312 20.6971 23.4312 19.4747V11.1489L15.1148 14.4754C14.0594 14.8976 12.8821 14.8976 11.8267 14.4754L3.51035 11.1489V19.4747ZM14.2928 12.4203L23.4312 8.76499V8.40756C23.4312 7.18512 22.4402 6.19414 21.2177 6.19414H5.72377C4.50133 6.19414 3.51035 7.18512 3.51035 8.40756V8.76499L12.6487 12.4203C13.1764 12.6314 13.7651 12.6314 14.2928 12.4203Z" fill="#667185"/>
</svg>
