<svg width="145" height="39" viewBox="0 0 145 39" fill="none" xmlns="http://www.w3.org/2000/svg">
<path d="M5.568 30L0.224 7.6H5.664L8.992 21.68L13.216 7.6H18.208L22.496 21.424L25.76 7.6H31.2L25.856 30H20.288L15.648 15.152L11.136 30H5.568ZM39.1513 30.192C33.8393 30.192 30.6073 26.736 30.6073 22.256C30.6073 17.488 33.7753 13.456 39.1513 13.456C44.0153 13.456 47.1833 16.816 47.1833 21.392C47.1833 21.936 47.1513 22.512 47.0873 22.896H36.1113C36.3673 25.072 37.6473 26.192 39.4073 26.192C41.1033 26.192 41.7433 25.008 42.1913 23.92L47.1833 25.04C46.2553 27.952 43.5673 30.192 39.1513 30.192ZM36.3033 19.856H41.6793C41.4233 18.416 40.5273 17.456 39.0553 17.456C37.7113 17.456 36.7513 18.32 36.3033 19.856ZM57.987 30.224C53.539 30.224 49.187 27.792 48.195 23.248L53.507 22.128C54.179 24.72 56.003 25.904 58.147 25.904C59.651 25.904 61.059 25.328 61.059 23.792C61.059 22.512 60.131 22.064 58.339 21.424L54.179 19.952C50.915 18.8 48.931 17.36 48.931 13.968C48.931 10.512 51.747 7.376 57.219 7.376C62.371 7.376 65.507 9.968 66.659 13.68L61.187 14.8C60.643 12.784 59.075 11.696 56.963 11.696C55.235 11.696 54.371 12.56 54.371 13.552C54.371 14.576 55.395 15.12 56.803 15.6L60.931 17.008C63.907 18.032 66.499 19.856 66.499 23.344C66.499 26.896 64.259 30.224 57.987 30.224ZM68.6923 30V7.6H74.1323V17.232C75.2523 15.184 77.2043 13.456 79.8603 13.456C83.5403 13.456 84.5003 16.016 84.5003 19.728V30H79.0603V20.688C79.0603 18.32 78.4843 17.36 76.9163 17.36C75.3483 17.36 74.1323 18.96 74.1323 21.328V30H68.6923ZM94.998 30.224C89.974 30.224 86.326 26.896 86.326 21.84C86.326 16.816 89.974 13.456 94.998 13.456C100.022 13.456 103.67 16.816 103.67 21.84C103.67 26.896 100.022 30.224 94.998 30.224ZM91.926 21.84C91.926 24.688 92.95 26.064 94.998 26.064C97.046 26.064 98.07 24.688 98.07 21.84C98.07 19.024 97.046 17.616 94.998 17.616C92.95 17.616 91.926 19.024 91.926 21.84ZM105.628 36.4V13.68H111.068V17.04C111.868 15.024 113.34 13.456 115.996 13.456C119.996 13.456 123.132 16.72 123.132 21.968C123.132 27.184 119.996 30.224 116.316 30.224C113.724 30.224 111.996 28.688 111.068 26.32V36.4H105.628ZM111.1 21.68C111.1 24.4 112.348 26.128 114.46 26.128C116.348 26.128 117.532 24.528 117.532 21.968C117.532 19.248 116.348 17.552 114.46 17.552C112.348 17.552 111.1 19.12 111.1 21.68ZM125.194 30V7.6H130.794V30H125.194ZM140.758 30C136.822 30 134.55 28.08 134.55 24.24V18H132.534V13.68H134.55V10.992L139.99 9.328V13.68H143.286V18H139.99V24.24C139.99 25.104 140.47 25.52 141.398 25.52H143.286V30H140.758Z" fill="#FCFCFD"/>
</svg>
